<mxfile host="app.diagrams.net" modified="2023-08-28T11:20:43.705Z" agent="Mozilla/5.0 (Windows NT 10.0; Win64; x64) AppleWebKit/537.36 (KHTML, like Gecko) Chrome/116.0.0.0 Safari/537.36" version="21.6.9" etag="-eq04NsdvqKcy6MsoZbD" type="github">
  <diagram name="第 1 页" id="Lr7K7I-CxzXQ-_-TZ4dl">
    <mxGraphModel>
      <root>
        <mxCell id="0" />
        <mxCell id="1" parent="0" />
      </root>
    </mxGraphModel>
  </diagram>
</mxfile>
